#!OML:ASF H:\Terrain\Walking\May29\JustinRory\rory.ASF
:FULLY-SPECIFIED
:DEGREES
389
root 11.6697 15.5619 -7.71808 -14.722 -1.40151 -0.948133
lowerback 24.6187 8.73853 3.37585
upperback 8.81773 12.1458 0.853806
thorax -3.19224 6.06204 -4.10161
lowerneck -13.7786 -16.0306 -14.3174
upperneck 7.31126 -22.0207 21.1334
head 8.63561 -9.66771 6.06851
rclavicle 7.59357e-014 -3.47873e-014
rhumerus 77.2967 -36.5275 -113.61
rradius 4.56417
rwrist 71.6207
rhand -23.7813 14.5068
rfingers 7.12502
rthumb 2.6886 -15.456
lclavicle 7.59357e-014 -3.47873e-014
lhumerus -16.8009 -7.24191 78.3348
lradius 62.3573
lwrist 18.2264
lhand -24.6199 23.3231
lfingers 7.12502
lthumb 1.87866 53.2946
rfemur -34.7188 2.92622 4.63724
rtibia 36.0183
rfoot 10.0192 -7.66711
rtoes 7.07845
lfemur -39.8435 -4.98471 -9.6646
ltibia 49.3829
lfoot 8.48954 -5.888
ltoes -17.8073
390
root 11.5927 15.5508 -7.72493 -14.0959 -0.554412 -0.76108
lowerback 24.9207 8.54424 3.55716
upperback 8.69178 11.942 0.750449
thorax -3.43297 5.95318 -4.31785
lowerneck -13.8053 -16.1761 -14.6591
upperneck 6.1691 -21.9905 21.4322
head 8.3427 -9.6949 6.21883
rclavicle 5.36719e-015 -1.98785e-016
rhumerus 78.0867 -36.3827 -113.588
rradius 4.37833
rwrist 71.9256
rhand -22.8447 13.9533
rfingers 7.12502
rthumb 3.59307 -15.9962
lclavicle 5.36719e-015 -1.98785e-016
lhumerus -16.0375 -9.37463 78.8948
lradius 65.4187
lwrist 17.786
lhand -24.207 23.5855
lfingers 7.12502
lthumb 2.27746 53.5531
rfemur -34.5602 4.36537 3.36243
rtibia 33.9209
rfoot 10.0602 -8.65319
rtoes 8.71843
lfemur -40.6595 -5.21591 -9.84359
ltibia 49.1551
lfoot 8.91891 -5.87353
ltoes -15.3969
391
root 11.5104 15.5316 -7.73487 -13.4266 0.342562 -0.749378
lowerback 25.3362 8.26139 3.95442
upperback 8.49218 11.6833 0.663384
thorax -3.7772 5.81215 -4.64155
lowerneck -14.008 -16.3989 -14.9984
upperneck 5.35844 -22.0833 21.5671
head 8.18698 -9.76041 6.27765
rclavicle 8.38871e-014 -2.88238e-014
rhumerus 78.5671 -36.8545 -113.411
rradius 4.36143
rwrist 72.5297
rhand -23.4707 14.1897
rfingers 7.12502
rthumb 2.98852 -15.7691
lclavicle 8.38871e-014 -2.88238e-014
lhumerus -15.3009 -11.3442 79.433
lradius 68.3057
lwrist 17.0388
lhand -23.599 21.5709
lfingers 7.12502
lthumb 2.86464 51.5315
rfemur -34.4508 5.93875 2.16318
rtibia 31.8714
rfoot 10.2883 -9.66686
rtoes 8.70437
lfemur -41.6278 -5.5137 -9.80305
ltibia 49.0107
lfoot 9.42544 -5.83165
ltoes -12.4794
392
root 11.421 15.5203 -7.74814 -12.9917 1.22406 -1.15897
lowerback 25.9022 7.83564 4.76645
upperback 8.37456 11.3536 0.630653
thorax -4.04444 5.64307 -5.12039
lowerneck -14.3748 -16.5279 -15.1021
upperneck 4.50327 -22.0713 21.7863
head 8.01333 -9.75641 6.34545
rclavicle 2.98177e-016 -5.1684e-015
rhumerus 79.0609 -37.2886 -113.478
rradius 4.39891
rwrist 73.0488
rhand -23.81 14.7224
rfingers 7.12502
rthumb 2.66089 -15.2407
lclavicle 2.98177e-016 -5.1684e-015
lhumerus -14.4188 -13.1443 79.6291
lradius 71.0013
lwrist 15.698
lhand -23.658 20.0804
lfingers 7.12502
lthumb 2.80766 50.0417
rfemur -34.0876 7.79733 1.38072
rtibia 29.9449
rfoot 10.2623 -11.1634
rtoes 7.72775
lfemur -42.4045 -5.84384 -9.31513
ltibia 48.9081
lfoot 9.83392 -6.21885
ltoes -12.3534
393
root 11.3317 15.508 -7.75775 -12.5959 2.33658 -1.01465
lowerback 26.4021 7.46532 5.08834
upperback 8.32001 10.9707 0.464952
thorax -4.28959 5.44724 -5.45213
lowerneck -14.6982 -16.4699 -15.0259
upperneck 3.62276 -21.7951 21.8092
head 7.72777 -9.64151 6.38904
rclavicle -8.15017e-014 5.20816e-014
rhumerus 79.636 -37.4593 -113.638
rradius 4.39127
rwrist 73.3629
rhand -28.8763 14.193
rfingers 7.12502
rthumb -2.23222 -15.7751
lclavicle -8.15017e-014 5.20816e-014
lhumerus -13.5521 -15.1022 79.5934
lradius 73.83
lwrist 14.5789
lhand -23.6653 19.6073
lfingers 7.12502
lthumb 2.80057 49.5687
rfemur -33.7341 9.30776 -0.00486686
rtibia 28.2966
rfoot 10.6958 -12.2559
rtoes 6.88288
lfemur -43.1388 -6.32913 -9.52755
ltibia 48.7873
lfoot 10.2183 -6.62776
ltoes -14.1233
394
root 11.2394 15.4867 -7.75855 -12.1117 3.43226 -0.753677
lowerback 26.8349 7.19356 5.38468
upperback 8.17082 10.7162 0.344435
thorax -4.61203 5.30596 -5.75365
lowerneck -14.9186 -16.4817 -14.9386
upperneck 3.15489 -21.6138 21.2106
head 7.47953 -9.59595 6.21823
rclavicle 9.18385e-014 -1.51076e-014
rhumerus 80.0472 -37.8713 -113.5
rradius 4.39851
rwrist 74.1252
rhand -24.5652 25.0927
rfingers 7.12502
rthumb 1.93151 -4.87827
lclavicle 9.18385e-014 -1.51076e-014
lhumerus -12.8047 -17.2187 79.7208
lradius 76.459
lwrist 13.6346
lhand -23.5052 19.2638
lfingers 7.12502
lthumb 2.95522 49.2231
rfemur -33.6872 10.9338 -1.62445
rtibia 27.0208
rfoot 11.3006 -13.47
rtoes 8.65299
lfemur -44.0011 -6.78475 -9.79532
ltibia 48.6822
lfoot 10.6496 -7.02142
ltoes -15.2346
395
root 11.1512 15.4713 -7.74426 -11.6516 4.48334 -0.369433
lowerback 27.0925 6.88854 5.57995
upperback 8.09347 10.3793 0.145608
thorax -4.78679 5.13537 -6.02974
lowerneck -15.2622 -16.543 -14.7104
upperneck 2.74016 -21.5291 20.6086
head 7.27153 -9.58331 6.00165
rclavicle -3.8266e-014 6.75868e-015
rhumerus 80.4919 -38.1037 -113.506
rradius 4.39266
rwrist 75.4302
rhand -30.1683 13.5158
rfingers 7.12502
rthumb -3.47996 -16.4355
lclavicle -3.8266e-014 6.75868e-015
lhumerus -11.858 -18.9147 79.7013
lradius 78.675
lwrist 12.5306
lhand -24.0012 18.9619
lfingers 7.12502
lthumb 2.47624 48.9273
rfemur -33.7309 12.619 -3.40298
rtibia 26.0849
rfoot 11.2017 -15.2099
rtoes 13.8311
lfemur -44.721 -7.20329 -10.2063
ltibia 48.659
lfoot 10.9269 -7.41211
ltoes -15.1972
396
root 11.0557 15.4311 -7.71839 -11.1683 5.67519 0.117159
lowerback 27.2583 6.49284 5.59871
upperback 8.11963 9.86441 -0.173433
thorax -4.83756 4.88954 -6.27011
lowerneck -15.5257 -16.5137 -14.3848
upperneck 1.79137 -21.3412 20.5668
head 6.93902 -9.51594 5.98273
rclavicle -2.88238e-015 7.55382e-015
rhumerus 81.1144 -37.9694 -113.925
rradius 4.4595
rwrist 76.9043
rhand -24.4501 15.2432
rfingers 7.12502
rthumb 2.0427 -14.7268
lclavicle -2.88238e-015 7.55382e-015
lhumerus -10.5866 -20.4655 79.1606
lradius 80.9178
lwrist 11.7023
lhand -24.8184 18.6712
lfingers 7.12502
lthumb 1.68696 48.6442
rfemur -33.7444 13.9437 -5.15365
rtibia 25.3198
rfoot 11.3932 -15.7945
rtoes 15.971
lfemur -45.4847 -7.68731 -10.7241
ltibia 48.7789
lfoot 11.0258 -8.10808
ltoes -16.3047
397
root 10.9424 15.3571 -7.68757 -10.7474 6.6934 0.0514161
lowerback 27.722 6.15821 6.05658
upperback 7.9662 9.57945 -0.293846
thorax -5.16817 4.73097 -6.65261
lowerneck -15.7269 -16.5352 -14.1641
upperneck 1.11576 -21.2475 20.4178
head 6.69567 -9.49253 5.92657
rclavicle -5.64548e-014 -7.55382e-015
rhumerus 81.6767 -38.0771 -114.177
rradius 4.40195
rwrist 78.4184
rhand -24.4508 12.4546
rfingers 7.12502
rthumb 2.04195 -17.5154
lclavicle -5.64548e-014 -7.55382e-015
lhumerus -9.33762 -22.3512 78.566
lradius 83.1241
lwrist 11.273
lhand -22.8998 18.5932
lfingers 7.12502
lthumb 3.5399 48.5435
rfemur -33.8963 15.3209 -6.13381
rtibia 24.7663
rfoot 12.3374 -15.3211
rtoes 14.2229
lfemur -46.4315 -7.95565 -10.4679
ltibia 49.0935
lfoot 11.0474 -8.92917
ltoes -16.1799
